<svg id="Calque_1" data-name="Calque 1" xmlns="http://www.w3.org/2000/svg" xmlns:xlink="http://www.w3.org/1999/xlink" viewBox="0 0 706.3 668.72"><defs><style>.cls-1{fill:url(#Dégradé_sans_nom_63);}</style><linearGradient id="Dégradé_sans_nom_63" x1="567.7" y1="539.64" x2="1274" y2="539.64" gradientUnits="userSpaceOnUse"><stop offset="0" stop-color="#4b5"/><stop offset="1" stop-color="#7289d1" stop-opacity="0.9"/></linearGradient></defs><title>favicon_principal</title><path class="cls-1" d="M571.67,380.33a21.46,21.46,0,0,1,.79-25.91C629.54,283.85,717.17,206,762,206c39.86,0,32.88-15.8,39,101,7.48,114.82,102.69,289.56,105,375.4.52,19.54,24.74,28.3,37.64,13.61,80.82-92.06,210.8-244.94,210.8-332.46,0-24.52-13.8-53.36-24.53-69.22-6-9.84-9-18.31-3.51-29.41.29-.58.56-1.18.8-1.78,9.93-24.42,53.73-56.77,88.56-56.77,36.79,0,56.72,33.16,58.26,82.19,0,44.7-21.47,113.91-92,207.65C1098.15,608.89,949.92,767,858.79,867a21.46,21.46,0,0,1-15.88,7H828.57a21.5,21.5,0,0,1-21.48-20.61c-6-144.73-91.76-311.73-102.14-429.92-8-91-6-61.37-8-76.47-4-31-54.31-3-92.46,36a21.48,21.48,0,0,1-32.87-2.64Z" transform="translate(-567.7 -205.28)"/></svg>