<svg id="Calque_1" data-name="Calque 1" xmlns="http://www.w3.org/2000/svg" xmlns:xlink="http://www.w3.org/1999/xlink" viewBox="0 0 649.71 456.89"><defs><style>.cls-1{fill:url(#Dégradé_sans_nom_82);}.cls-2{fill:url(#Dégradé_sans_nom_82-2);}.cls-3{fill:url(#Dégradé_sans_nom_82-3);}.cls-4{fill:url(#Dégradé_sans_nom_82-4);}</style><linearGradient id="Dégradé_sans_nom_82" x1="537.29" y1="389.41" x2="962.7" y2="389.41" gradientUnits="userSpaceOnUse"><stop offset="0" stop-color="#00aced"/><stop offset="0.05" stop-color="#03aee8"/><stop offset="0.69" stop-color="#28ccac"/><stop offset="1" stop-color="#36d794"/></linearGradient><linearGradient id="Dégradé_sans_nom_82-2" x1="848.89" y1="528.31" x2="970.71" y2="528.31" xlink:href="#Dégradé_sans_nom_82"/><linearGradient id="Dégradé_sans_nom_82-3" x1="984.85" y1="492.78" x2="1069.9" y2="492.78" xlink:href="#Dégradé_sans_nom_82"/><linearGradient id="Dégradé_sans_nom_82-4" x1="1077.44" y1="500.13" x2="1187" y2="500.13" xlink:href="#Dégradé_sans_nom_82"/></defs><title>logo_principal</title><path class="cls-1" d="M539.67,265a14.27,14.27,0,0,1,.54-16.53C577,199.91,625.57,161,654.54,161,680.2,161,693,191.56,697,271.49c4.79,78.11,6.35,155.58,7.81,214.21.34,13.34,38.05,19.1,46.54,8.81,52.1-63.17,134.41-166.57,134.41-226,0-16.78-8.88-36.51-15.79-47.37-3.94-6.91-5.92-12.83-2-20.72C873.89,183.66,902.51,161,925.2,161c23.69,0,36.51,22.69,37.5,56.24,0,30.59-13.81,78-59.21,142.1-53.4,76.29-147.35,183-206.15,251.53a20.09,20.09,0,0,1-15.27,7h0A20.12,20.12,0,0,1,662,598.52c-3.82-98.31-29.5-223.81-35.05-303.35C623,243.86,617,234,607.18,234c-6,0-21.09,6.65-45.26,32.76A14.21,14.21,0,0,1,539.67,265Z" transform="translate(-537.29 -160.97)"/><path class="cls-2" d="M970.71,468.8c0,7.7-5.25,16.45-13.65,20.66-4.55,2.1-7,1.74-11.9-2.81-10.85-11.55-19.26-18.9-29.06-18.9-10.15,0-14.7,7.35-14.35,14.35,0,9.1,11.2,16.46,24.15,25.91,20.31,14.7,35.36,24.5,35.36,43.75,0,31.85-48,58.45-72.46,58.45-19.25,0-39.2-12.25-39.9-28.35-.35-8.4,8.4-20,16.8-22.75,3.15-1.05,5.25,0,8.75,3.85,11.9,15,26.95,25.55,38.85,25.55,9.11,0,15.06-6.65,15.06-14.35,0-7.35-3.16-13.65-21-26.6-17.5-12.25-36.05-23.45-36.05-45.15,0-13.31,6.3-25.91,22.4-38.86,13.65-10.5,30.8-17.15,44.81-17.15C956.71,446.4,970.71,456.55,970.71,468.8Z" transform="translate(-537.29 -160.97)"/><path class="cls-3" d="M1064,571.71c-22,26.6-46.9,38.5-61.25,38.5-11.55,0-17.85-10.5-12.25-35,6.65-28,14.7-58.1,19.95-81.55,2.45-10.16,2.1-13.31-1-13.31-3.5,0-11.55,4.9-19.25,11.55l-5.25-11.2c23.45-22.75,48.3-34.3,61.25-34.3,11.9,0,14.7,10.85,7,43.4-5.25,21.71-12.95,51.81-18.2,73.51-2.45,8.75-2.45,13.65.35,13.65s11.55-4.9,22.75-16.45Zm6-175c0,14-10.5,27.3-25.9,27.3-12.6,0-21.35-8.05-21.35-21.7,0-11.9,9.45-26.95,27.3-26.95C1063.6,375.35,1069.9,385.15,1069.9,396.7Z" transform="translate(-537.29 -160.97)"/><path class="cls-4" d="M1179.3,466c-5.25.7-23.45,1.75-33.25,2.1C1129.6,547.21,1130.3,543,1126.8,563c-2.45,12.95-.71,15.75,2.44,15.75,6.66,0,18.21-7.7,29.06-20l5.6,10.85c-13.65,18.55-41.31,40.6-63,40.6-16.45,0-23.45-12.25-15.05-50.05l19.61-92.06h-27.31l-.7-3.15,10.85-14.35h21l7.7-36.4c11.91-5.95,32.21-16.45,42-24.15l5.25,3.15c-3.85,12.6-10.5,39.2-14.35,57.4H1187Z" transform="translate(-537.29 -160.97)"/></svg>